<svg xmlns="http://www.w3.org/2000/svg" width="638" height="88" viewBox="0 0 638 88">
<rect width="100%" height="100%" rx="16" fill="#0F172A"/>
<g transform="translate(24,24)">
<rect width="40" height="40" rx="10" fill="#F1F5F9"/>
<g transform="translate(8,8) scale(1.0)" stroke="#0F172A" fill="none" color="#0F172A"><path d="M19 21v-2a4 4 0 0 0-4-4H9a4 4 0 0 0-4 4v2" />
  <circle cx="12" cy="7" r="4" /></g>
</g>
<g transform="translate(74,24)">
<rect width="40" height="40" rx="10" fill="#F1F5F9"/>
<g transform="translate(8,8) scale(1.0)" stroke="#0F172A" fill="none" color="#0F172A"><path d="M16 21v-2a4 4 0 0 0-4-4H6a4 4 0 0 0-4 4v2" />
  <path d="M16 3.128a4 4 0 0 1 0 7.744" />
  <path d="M22 21v-2a4 4 0 0 0-3-3.87" />
  <circle cx="9" cy="7" r="4" /></g>
</g>
<g transform="translate(124,24)">
<rect width="40" height="40" rx="10" fill="#F1F5F9"/>
<g transform="translate(8,8) scale(1.0)" stroke="#0F172A" fill="none" color="#0F172A"><path d="M12 8V4H8" />
  <rect width="16" height="12" x="4" y="8" rx="2" />
  <path d="M2 14h2" />
  <path d="M20 14h2" />
  <path d="M15 13v2" />
  <path d="M9 13v2" /></g>
</g>
<g transform="translate(174,24)">
<rect width="40" height="40" rx="10" fill="#F1F5F9"/>
<g transform="translate(8,8) scale(1.0)" stroke="#0F172A" fill="none" color="#0F172A"><path d="M5 12h14" />
  <path d="m12 5 7 7-7 7" /></g>
</g>
<g transform="translate(224,24)">
<rect width="40" height="40" rx="10" fill="#F1F5F9"/>
<g transform="translate(8,8) scale(1.0)" stroke="#0F172A" fill="none" color="#0F172A"><path d="M15 6a9 9 0 0 0-9 9V3" />
  <circle cx="18" cy="6" r="3" />
  <circle cx="6" cy="18" r="3" /></g>
</g>
<g transform="translate(274,24)">
<rect width="40" height="40" rx="10" fill="#F1F5F9"/>
<g transform="translate(8,8) scale(1.0)" stroke="#0F172A" fill="none" color="#0F172A"><path d="M3 12a9 9 0 0 1 9-9 9.75 9.75 0 0 1 6.74 2.74L21 8" />
  <path d="M21 3v5h-5" />
  <path d="M21 12a9 9 0 0 1-9 9 9.75 9.75 0 0 1-6.74-2.74L3 16" />
  <path d="M8 16H3v5" /></g>
</g>
<g transform="translate(324,24)">
<rect width="40" height="40" rx="10" fill="#F1F5F9"/>
<g transform="translate(8,8) scale(1.0)" stroke="#0F172A" fill="none" color="#0F172A"><circle cx="12" cy="12" r="10" />
  <path d="m9 12 2 2 4-4" /></g>
</g>
<g transform="translate(374,24)">
<rect width="40" height="40" rx="10" fill="#F1F5F9"/>
<g transform="translate(8,8) scale(1.0)" stroke="#0F172A" fill="none" color="#0F172A"><circle cx="12" cy="12" r="10" />
  <path d="m15 9-6 6" />
  <path d="m9 9 6 6" /></g>
</g>
<g transform="translate(424,24)">
<rect width="40" height="40" rx="10" fill="#F1F5F9"/>
<g transform="translate(8,8) scale(1.0)" stroke="#0F172A" fill="none" color="#0F172A"><path d="m21.73 18-8-14a2 2 0 0 0-3.48 0l-8 14A2 2 0 0 0 4 21h16a2 2 0 0 0 1.73-3" />
  <path d="M12 9v4" />
  <path d="M12 17h.01" /></g>
</g>
<g transform="translate(474,24)">
<rect width="40" height="40" rx="10" fill="#F1F5F9"/>
<g transform="translate(8,8) scale(1.0)" stroke="#0F172A" fill="none" color="#0F172A"><ellipse cx="12" cy="5" rx="9" ry="3" />
  <path d="M3 5V19A9 3 0 0 0 21 19V5" />
  <path d="M3 12A9 3 0 0 0 21 12" /></g>
</g>
<g transform="translate(524,24)">
<rect width="40" height="40" rx="10" fill="#F1F5F9"/>
<g transform="translate(8,8) scale(1.0)" stroke="#0F172A" fill="none" color="#0F172A"><rect width="18" height="11" x="3" y="11" rx="2" ry="2" />
  <path d="M7 11V7a5 5 0 0 1 10 0v4" /></g>
</g>
<g transform="translate(574,24)">
<rect width="40" height="40" rx="10" fill="#F1F5F9"/>
<g transform="translate(8,8) scale(1.0)" stroke="#0F172A" fill="none" color="#0F172A"><rect width="5" height="5" x="3" y="3" rx="1" />
  <rect width="5" height="5" x="16" y="3" rx="1" />
  <rect width="5" height="5" x="3" y="16" rx="1" />
  <path d="M21 16h-3a2 2 0 0 0-2 2v3" />
  <path d="M21 21v.01" />
  <path d="M12 7v3a2 2 0 0 1-2 2H7" />
  <path d="M3 12h.01" />
  <path d="M12 3h.01" />
  <path d="M12 16v.01" />
  <path d="M16 12h1" />
  <path d="M21 12v.01" />
  <path d="M12 21v-1" /></g>
</g>
</svg>
